<mxfile host="app.diagrams.net" agent="Mozilla/5.0 (Windows NT 10.0; Win64; x64) AppleWebKit/537.36 (KHTML, like Gecko) Chrome/130.0.0.0 Safari/537.36" version="24.8.6">
  <diagram name="페이지-1" id="HObtC5oPkVgvrynjsulA">
    <mxGraphModel dx="1434" dy="780" grid="1" gridSize="10" guides="1" tooltips="1" connect="1" arrows="1" fold="1" page="1" pageScale="1" pageWidth="827" pageHeight="1169" math="0" shadow="0">
      <root>
        <mxCell id="0" />
        <mxCell id="1" parent="0" />
        <mxCell id="wxyRs1XQf3C56py_Pnzs-1" value="Server" style="swimlane;whiteSpace=wrap;html=1;" parent="1" vertex="1">
          <mxGeometry x="39" y="50" width="230" height="490" as="geometry">
            <mxRectangle x="39" y="50" width="80" height="30" as="alternateBounds" />
          </mxGeometry>
        </mxCell>
        <mxCell id="jXVnmlY651y_onA_-QU1-7" value="" style="edgeStyle=orthogonalEdgeStyle;rounded=0;orthogonalLoop=1;jettySize=auto;html=1;" edge="1" parent="wxyRs1XQf3C56py_Pnzs-1" source="wxyRs1XQf3C56py_Pnzs-18" target="jXVnmlY651y_onA_-QU1-6">
          <mxGeometry relative="1" as="geometry" />
        </mxCell>
        <mxCell id="wxyRs1XQf3C56py_Pnzs-18" value="Search in the Database" style="rounded=1;whiteSpace=wrap;html=1;" parent="wxyRs1XQf3C56py_Pnzs-1" vertex="1">
          <mxGeometry x="20.5" y="240" width="189" height="40" as="geometry" />
        </mxCell>
        <mxCell id="jXVnmlY651y_onA_-QU1-6" value="Provide search result" style="rounded=1;whiteSpace=wrap;html=1;" vertex="1" parent="wxyRs1XQf3C56py_Pnzs-1">
          <mxGeometry x="20.5" y="310" width="189" height="40" as="geometry" />
        </mxCell>
        <mxCell id="wxyRs1XQf3C56py_Pnzs-2" value="Client" style="swimlane;whiteSpace=wrap;html=1;" parent="1" vertex="1">
          <mxGeometry x="299" y="50" width="230" height="490" as="geometry" />
        </mxCell>
        <mxCell id="wxyRs1XQf3C56py_Pnzs-7" value="Request search word" style="rounded=1;whiteSpace=wrap;html=1;" parent="wxyRs1XQf3C56py_Pnzs-2" vertex="1">
          <mxGeometry x="20" y="170" width="189" height="40" as="geometry" />
        </mxCell>
        <mxCell id="wxyRs1XQf3C56py_Pnzs-10" value="Request search result" style="rounded=1;whiteSpace=wrap;html=1;" parent="wxyRs1XQf3C56py_Pnzs-2" vertex="1">
          <mxGeometry x="20.5" y="240" width="189" height="40" as="geometry" />
        </mxCell>
        <mxCell id="wxyRs1XQf3C56py_Pnzs-20" value="Show search result" style="rounded=1;whiteSpace=wrap;html=1;" parent="wxyRs1XQf3C56py_Pnzs-2" vertex="1">
          <mxGeometry x="20.5" y="310" width="189" height="40" as="geometry" />
        </mxCell>
        <mxCell id="wxyRs1XQf3C56py_Pnzs-3" value="User" style="swimlane;whiteSpace=wrap;html=1;" parent="1" vertex="1">
          <mxGeometry x="559" y="50" width="230" height="490" as="geometry" />
        </mxCell>
        <mxCell id="wxyRs1XQf3C56py_Pnzs-4" value="Request Search UI" style="rounded=1;whiteSpace=wrap;html=1;" parent="wxyRs1XQf3C56py_Pnzs-3" vertex="1">
          <mxGeometry x="20.5" y="100" width="189" height="40" as="geometry" />
        </mxCell>
        <mxCell id="wxyRs1XQf3C56py_Pnzs-6" style="edgeStyle=orthogonalEdgeStyle;rounded=0;orthogonalLoop=1;jettySize=auto;html=1;entryX=0.5;entryY=0;entryDx=0;entryDy=0;" parent="wxyRs1XQf3C56py_Pnzs-3" source="wxyRs1XQf3C56py_Pnzs-5" target="wxyRs1XQf3C56py_Pnzs-4" edge="1">
          <mxGeometry relative="1" as="geometry" />
        </mxCell>
        <mxCell id="wxyRs1XQf3C56py_Pnzs-5" value="" style="ellipse;whiteSpace=wrap;html=1;aspect=fixed;fillColor=#000000;" parent="wxyRs1XQf3C56py_Pnzs-3" vertex="1">
          <mxGeometry x="100" y="40" width="30" height="30" as="geometry" />
        </mxCell>
        <mxCell id="wxyRs1XQf3C56py_Pnzs-8" value="Enter a Single Search Character" style="rounded=1;whiteSpace=wrap;html=1;verticalAlign=middle;" parent="wxyRs1XQf3C56py_Pnzs-3" vertex="1">
          <mxGeometry x="20.5" y="170" width="189" height="40" as="geometry" />
        </mxCell>
        <mxCell id="jXVnmlY651y_onA_-QU1-17" value="" style="edgeStyle=orthogonalEdgeStyle;rounded=0;orthogonalLoop=1;jettySize=auto;html=1;" edge="1" parent="wxyRs1XQf3C56py_Pnzs-3" source="jXVnmlY651y_onA_-QU1-15" target="jXVnmlY651y_onA_-QU1-16">
          <mxGeometry relative="1" as="geometry" />
        </mxCell>
        <mxCell id="jXVnmlY651y_onA_-QU1-15" value="Select search result" style="rounded=1;whiteSpace=wrap;html=1;verticalAlign=middle;" vertex="1" parent="wxyRs1XQf3C56py_Pnzs-3">
          <mxGeometry x="20.5" y="380" width="189" height="40" as="geometry" />
        </mxCell>
        <mxCell id="jXVnmlY651y_onA_-QU1-16" value="" style="ellipse;html=1;shape=endState;fillColor=strokeColor;" vertex="1" parent="wxyRs1XQf3C56py_Pnzs-3">
          <mxGeometry x="100" y="450" width="30" height="30" as="geometry" />
        </mxCell>
        <mxCell id="wxyRs1XQf3C56py_Pnzs-13" style="edgeStyle=orthogonalEdgeStyle;rounded=0;orthogonalLoop=1;jettySize=auto;html=1;entryX=0.5;entryY=0;entryDx=0;entryDy=0;" parent="1" source="wxyRs1XQf3C56py_Pnzs-4" target="wxyRs1XQf3C56py_Pnzs-7" edge="1">
          <mxGeometry relative="1" as="geometry" />
        </mxCell>
        <mxCell id="wxyRs1XQf3C56py_Pnzs-16" style="edgeStyle=orthogonalEdgeStyle;rounded=0;orthogonalLoop=1;jettySize=auto;html=1;entryX=1;entryY=0.5;entryDx=0;entryDy=0;exitX=0.5;exitY=1;exitDx=0;exitDy=0;" parent="1" source="wxyRs1XQf3C56py_Pnzs-8" target="wxyRs1XQf3C56py_Pnzs-10" edge="1">
          <mxGeometry relative="1" as="geometry">
            <Array as="points">
              <mxPoint x="674" y="310" />
            </Array>
          </mxGeometry>
        </mxCell>
        <mxCell id="jXVnmlY651y_onA_-QU1-4" style="edgeStyle=orthogonalEdgeStyle;rounded=0;orthogonalLoop=1;jettySize=auto;html=1;entryX=0;entryY=0.5;entryDx=0;entryDy=0;" edge="1" parent="1" source="wxyRs1XQf3C56py_Pnzs-7" target="wxyRs1XQf3C56py_Pnzs-8">
          <mxGeometry relative="1" as="geometry">
            <Array as="points">
              <mxPoint x="410" y="240" />
            </Array>
          </mxGeometry>
        </mxCell>
        <mxCell id="jXVnmlY651y_onA_-QU1-5" style="edgeStyle=orthogonalEdgeStyle;rounded=0;orthogonalLoop=1;jettySize=auto;html=1;entryX=1;entryY=0.5;entryDx=0;entryDy=0;" edge="1" parent="1" source="wxyRs1XQf3C56py_Pnzs-10" target="wxyRs1XQf3C56py_Pnzs-18">
          <mxGeometry relative="1" as="geometry" />
        </mxCell>
        <mxCell id="jXVnmlY651y_onA_-QU1-8" style="edgeStyle=orthogonalEdgeStyle;rounded=0;orthogonalLoop=1;jettySize=auto;html=1;entryX=0;entryY=0.5;entryDx=0;entryDy=0;" edge="1" parent="1" source="jXVnmlY651y_onA_-QU1-6" target="wxyRs1XQf3C56py_Pnzs-20">
          <mxGeometry relative="1" as="geometry" />
        </mxCell>
        <mxCell id="jXVnmlY651y_onA_-QU1-10" value="loop" style="shape=umlFrame;whiteSpace=wrap;html=1;pointerEvents=0;recursiveResize=0;container=1;collapsible=0;width=160;" vertex="1" parent="1">
          <mxGeometry x="50" y="200" width="730" height="210" as="geometry" />
        </mxCell>
        <mxCell id="jXVnmlY651y_onA_-QU1-12" style="edgeStyle=orthogonalEdgeStyle;rounded=0;orthogonalLoop=1;jettySize=auto;html=1;entryX=0.5;entryY=0;entryDx=0;entryDy=0;" edge="1" parent="1" source="wxyRs1XQf3C56py_Pnzs-20">
          <mxGeometry relative="1" as="geometry">
            <mxPoint x="674" y="430" as="targetPoint" />
          </mxGeometry>
        </mxCell>
      </root>
    </mxGraphModel>
  </diagram>
</mxfile>
